# xmcd
#
# Track frame offsets:
#	150
#	11435
#	26866
#	44217
#	57154
#	87973
#	101988
#	118510
#	139049
#	164901
#	174327
#	192613
#	214043
#	226692
#	239815
#	254509
#	274452
#
# Disc length: 3882 seconds
#
# Revision: 1
# Processed by: cddbd v1.4PL0 Copyright (c) Steve Scherf et al.
# Submitted via: MusicWizard 6.0.1
#
DISCID=060f2811
DTITLE=Various Artist - Songbook Antonio Carlos Jobim 5
DYEAR=1900
DGENRE=
TTITLE0=Chico Buarque - Luiza
TTITLE1=Maria Bethânia - Sem Voce
TTITLE2=Ed Motta, Leandro Braga and Beth Bruno - Imagina
TTITLE3=Dori Caymmi - Eu Sei Que Vou Te Amar
TTITLE4=Hermeto Pascoal and Jane Duboc - Chovendo Na Roseira
TTITLE5=Moraes Moreira - Samba De Una Nota So
TTITLE6=Alaíde Costa - Samba Do Aviao
TTITLE7=Toninho Horta - Amor En Paz
TTITLE8=Jards Macalé - Dindi
TTITLE9=Lenine - Wave
TTITLE10=Olívia Byington, Paulo Jobim and Jacques Morelembaum - Canta, Canta Mais
TTITLE11=Francis Hime - Pois E
TTITLE12=Zezé Di Camargo and Maurício Carrilho - Solidao
TTITLE13=Márcio Faraco - Gabriela
TTITLE14=Guadalupe - Oficina
TTITLE15=Áurea Martins - Se è Por Falta De Adeus
TTITLE16=Leny Andrade and Cristovão Bastos - Ligia
EXTD=
EXTT0=
EXTT1=
EXTT2=
EXTT3=
EXTT4=
EXTT5=
EXTT6=
EXTT7=
EXTT8=
EXTT9=
EXTT10=
EXTT11=
EXTT12=
EXTT13=
EXTT14=
EXTT15=
EXTT16=
PLAYORDER=
